simulation
nRows=36
nColumns=15
endheader
time  TH_x TH_y TH_z SC_y  SC_z  SC_x  AC_y  AC_z  AC_x  GH_y  GH_z  GH_x  EL_x  PS_y
0.000000  0.000000  0.000000  0.000000  -21.718600  5.599733  -4.743452  36.880682  -4.567711  -19.072922  20.161772  15.764250  16.431019  15.721982  130.783042
0.000068  0.000000  0.000000  0.000000  -21.718600  5.599733  -2.111873  36.683058  -6.143611  -21.189793  20.161772  15.764250  16.431019  15.721982  130.783042
0.000135  0.000000  0.000000  0.000000  -21.718600  5.599733  0.519705  36.426176  -7.711132  -23.319193  20.161772  15.764250  16.431019  15.721982  130.783042
0.000203  0.000000  0.000000  0.000000  -21.718600  5.599733  3.151284  36.109419  -9.268054  -25.464373  20.161772  15.764250  16.431019  15.721982  130.783042
0.000270  0.000000  0.000000  0.000000  -21.718600  5.599733  5.782863  35.732044  -10.812088  -27.628591  20.161772  15.764250  16.431019  15.721982  130.783042
0.000338  0.000000  0.000000  0.000000  -21.718600  5.599733  8.414442  35.293170  -12.340922  -29.815080  20.161772  15.764250  16.431019  15.721982  130.783042
0.000405  0.000000  0.000000  0.000000  -21.718600  5.599733  11.046021  34.791843  -13.852127  -32.027100  20.161772  15.764250  16.431019  15.721982  130.783042
0.000473  0.000000  0.000000  0.000000  -21.718600  5.599733  13.677600  34.226986  -15.343228  -34.267885  20.161772  15.764250  16.431019  15.721982  130.783042
0.000541  0.000000  0.000000  0.000000  -21.718600  5.599733  16.309179  33.597444  -16.811643  -36.540660  20.161772  15.764250  16.431019  15.721982  130.783042
0.000608  0.000000  0.000000  0.000000  -21.718600  5.599733  18.940758  32.902014  -18.254707  -38.848603  20.161772  15.764250  16.431019  15.721982  130.783042
0.000676  0.000000  0.000000  0.000000  -21.718600  5.599733  21.572337  32.139467  -19.669664  -41.194829  20.161772  15.764250  16.431019  15.721982  130.783042
0.000743  0.000000  0.000000  0.000000  -21.718600  5.599733  24.203916  31.308552  -21.053627  -43.582378  20.161772  15.764250  16.431019  15.721982  130.783042
0.000811  0.000000  0.000000  0.000000  -21.718600  5.599733  26.835495  30.408109  -22.403632  -46.014174  20.161772  15.764250  16.431019  15.721982  130.783042
0.000878  0.000000  0.000000  0.000000  -21.718600  5.599733  29.467074  29.436964  -23.716560  -48.493016  20.161772  15.764250  16.431019  15.721982  130.783042
0.000946  0.000000  0.000000  0.000000  -21.718600  5.599733  32.098653  28.394131  -24.989205  -51.021484  20.161772  15.764250  16.431019  15.721982  130.783042
0.001014  0.000000  0.000000  0.000000  -21.718600  5.599733  34.730232  27.278789  -26.218246  -53.601928  20.161772  15.764250  16.431019  15.721982  130.783042
0.001081  0.000000  0.000000  0.000000  -21.718600  5.599733  37.361811  26.090358  -27.400261  -56.236395  20.161772  15.764250  16.431019  15.721982  130.783042
0.001149  0.000000  0.000000  0.000000  -21.718600  5.599733  39.993390  24.828563  -28.531735  -58.926572  20.161772  15.764250  16.431019  15.721982  130.783042
0.001216  0.000000  0.000000  0.000000  -21.718600  5.599733  42.624969  23.493504  -29.609078  -61.673715  20.161772  15.764250  16.431019  15.721982  130.783042
0.001284  0.000000  0.000000  0.000000  -21.718600  5.599733  45.256548  22.085782  -30.628647  -64.478580  20.161772  15.764250  16.431019  15.721982  130.783042
0.001351  0.000000  0.000000  0.000000  -37.885138  11.577887  -4.743452  48.987382  16.620429  5.984797  11.631969  -3.897770  -11.052695  14.748337  125.057519
0.001419  0.000000  0.000000  0.000000  -37.885138  11.577887  -2.111873  49.468073  14.627339  4.200379  11.631969  -3.897770  -11.052695  14.748337  125.057519
0.001487  0.000000  0.000000  0.000000  -37.885138  11.577887  0.519705  49.880899  12.620916  2.448186  11.631969  -3.897770  -11.052695  14.748337  125.057519
0.001554  0.000000  0.000000  0.000000  -37.885138  11.577887  3.151284  50.228160  10.603243  0.723344  11.631969  -3.897770  -11.052695  14.748337  125.057519
0.001622  0.000000  0.000000  0.000000  -37.885138  11.577887  5.782863  50.511798  8.576304  -0.978849  11.631969  -3.897770  -11.052695  14.748337  125.057519
0.001689  0.000000  0.000000  0.000000  -37.885138  11.577887  8.414442  50.733390  6.541988  -2.662939  11.631969  -3.897770  -11.052695  14.748337  125.057519
0.001757  0.000000  0.000000  0.000000  -37.885138  11.577887  11.046021  50.894171  4.502113  -4.333349  11.631969  -3.897770  -11.052695  14.748337  125.057519
0.001824  0.000000  0.000000  0.000000  -37.885138  11.577887  13.677600  50.995018  2.458460  -5.994407  11.631969  -3.897770  -11.052695  14.748337  125.057519
0.001892  0.000000  0.000000  0.000000  -37.885138  11.577887  16.309179  51.036523  0.412736  -7.650388  11.631969  -3.897770  -11.052695  14.748337  125.057519
0.001960  0.000000  0.000000  0.000000  -37.885138  11.577887  18.940758  51.018889  -1.633329  -9.305506  11.631969  -3.897770  -11.052695  14.748337  125.057519
0.002027  0.000000  0.000000  0.000000  -37.885138  11.577887  21.572337  50.942021  -3.678024  -10.963997  11.631969  -3.897770  -11.052695  14.748337  125.057519
0.002095  0.000000  0.000000  0.000000  -37.885138  11.577887  24.203916  50.805511  -5.719640  -12.630124  11.631969  -3.897770  -11.052695  14.748337  125.057519
0.002162  0.000000  0.000000  0.000000  -37.885138  11.577887  26.835495  50.608582  -7.756412  -14.308171  11.631969  -3.897770  -11.052695  14.748337  125.057519
0.002230  0.000000  0.000000  0.000000  -37.885138  11.577887  29.467074  50.350144  -9.786550  -16.002519  11.631969  -3.897770  -11.052695  14.748337  125.057519
0.002297  0.000000  0.000000  0.000000  -37.885138  11.577887  32.098653  50.028763  -11.808191  -17.717670  11.631969  -3.897770  -11.052695  14.748337  125.057519
0.002365  0.000000  0.000000  0.000000  -37.885138  11.577887  34.730232  49.642640  -13.819399  -19.458254  11.631969  -3.897770  -11.052695  14.748337  125.057519
